# xmcd
#
# Track frame offsets:
# 150
# 16605
# 30358
# 45571
# 59635
# 76692
# 90046
# 103138
# 119661
# 134010
# 151355
# 161175
# 181988
#
# Disc length: 2614 seconds
#
#
# Revision: 5
# Processed by: cddbd v1.5.2PL0 Copyright (c) Steve Scherf et al.
# Submitted via: FreeRIP 2.96 
#
DISCID=9c0a340d
DTITLE=Ian and Sylvia - Great Speckled Bird
DYEAR=1970
DGENRE=Country Rock
TTITLE0=Love What You're Doing Child
TTITLE1=Calgary
TTITLE2=Trucker's Cafe
TTITLE3=Long Long Time To Get Old
TTITLE4=Flies In The Bottle
TTITLE5=Bloodshot Beholder
TTITLE6=Crazy Arms
TTITLE7=This Dream
TTITLE8=Smiling Wine
TTITLE9=Rio Grande
TTITLE10=Disappearing Woman
TTITLE11=We Sail
TTITLE12=New Trucker's Cafe
EXTD=
EXTT0=
EXTT1=
EXTT2=
EXTT3=
EXTT4=
EXTT5=
EXTT6=
EXTT7=
EXTT8=
EXTT9=
EXTT10=
EXTT11=
EXTT12=Live Version
PLAYORDER=
